<svg xmlns="http://www.w3.org/2000/svg" fill="none" viewBox="0 0 988 583"><path stroke="url(#paint0_linear)" stroke-dasharray="4 4" stroke-linecap="round" stroke-width="1.5" d="M321 402l-162 87" opacity=".5"/><path stroke="url(#paint1_linear)" stroke-dasharray="4 4" stroke-linecap="round" stroke-width="1.5" d="M662 414l94 58" opacity=".5"/><path stroke="url(#paint2_linear)" stroke-dasharray="4 4" stroke-linecap="round" stroke-width="1.5" d="M747 163l-163 87" opacity=".5"/><path fill="url(#paint3_linear)" fill-opacity=".6" d="M745 360L518 492c-30 16-74 13-108-6L134 342c-34-19-37-49-8-66l245-133c30-16 80-14 114 5l252 146c34 19 37 49 8 66z" opacity=".5"/><path fill="url(#paint4_linear)" d="M768 329l-2-65H179l1 63v2c1 10 9 20 24 29l219 127c29 16 74 18 99 4l229-133c12-7 18-17 17-27z"/><path fill="url(#paint5_linear)" d="M750 293L521 425c-25 15-70 13-99-4L203 295c-30-17-33-43-7-58l228-132c26-14 70-13 99 4l219 127c30 17 33 43 8 57z"/><g filter="url(#filter0_f)"><ellipse cx="506.6" cy="298.2" fill="url(#paint6_linear)" rx="150.2" ry="9.5" transform="rotate(-30 507 298)"/></g><path fill="url(#paint7_linear)" d="M209 253l245-136c6-3 14-4 21 0l145 86a23 23 0 012 40L384 380c-8 5-19 5-28 0l-147-87a23 23 0 010-40z" opacity=".3"/><path stroke="#3A3E4F" d="M472 326l100 70 4 63M592 256l104 69v65"/><g clip-path="url(#clip0)"><path fill="#98A4E0" d="M609 240l-74-43c8-4 14-10 19-17 6-7 10-16 12-24l74 43c-3 8-7 16-12 23s-12 13-19 18z"/><path fill="#2B2F3D" d="M609 240l-74-43c8-4 14-10 19-17 6-7 10-16 12-24l74 43c-3 8-7 16-12 23s-11 13-19 18z"/><path fill="#98A4E0" d="M559 118l74 43 4 3c4 5 6 12 5 18 0 6 0 11-2 17l-74-43c2-5 3-11 3-17s-2-13-6-18l-4-3z"/><path fill="#2B2F3D" d="M640 199l-74-43 1-3 74 43-1 3z"/><path fill="#2B2F3D" d="M641 196l-74-43 2-14c0-6-2-13-6-18l-4-3 74 43 4 3c4 5 6 12 5 18l-1 14z"/><path fill="#C6D5FA" d="M566 106l73 43-6-2c-7-1-15 0-21 4l-74-43c6-4 14-5 21-4l7 2zM612 151l-74-43 74 43z"/><path fill="url(#paint8_linear)" d="M612 151l-74-43c6-4 14-5 21-4l7 2 73 43-6-2c-7-1-15 0-21 4z"/><path fill="#C6D5FA" d="M605 164l-74-43a3 3 0 01-1-2 20 20 0 00-9-13l73 42a20 20 0 019 14 3 3 0 002 2z"/><path fill="#3B4053" d="M605 164l-74-43a3 3 0 01-1-2 20 20 0 00-9-13l73 42a20 20 0 019 14 3 3 0 002 2z"/><path fill="#282B37" d="M559 148l-73-43a70 70 0 0114-10l73 43a57 57 0 00-14 10z"/><path fill="url(#paint9_linear)" d="M573 138l-73-42c9-5 17-6 24-3l3 1 74 43-3-2c-7-2-15-1-25 3z"/><path fill="#2B2F3D" d="M416 351l-74-42 193-112 74 43-193 111z"/><path fill="#98A4E0" d="M552 164l-74-43a3 3 0 01-2-3v-2c0-13-3-24-9-31l-7-6 73 43 7 6c6 7 10 17 10 31v2a3 3 0 002 3z"/><path fill="#3B4053" d="M552 164l-74-43a3 3 0 01-2-3v-2c0-13-3-24-9-31l-7-6 73 43 7 6c6 7 10 17 10 31v2a3 3 0 002 3z"/><path fill="#98A4E0" d="M381 355l-73-43c4 3 10 4 15 3 7-1 13-3 19-6l74 42c-6 4-13 6-19 7-6 0-11-1-16-3z"/><path fill="#2B2F3D" d="M381 355l-73-43c4 3 10 4 15 3 6-1 11-2 16-5l73 43c-4 3-10 4-15 5-6 0-11-1-16-3z"/><path fill="#2B2F3D" d="M412 353l-73-43 3-1 74 42-4 2z"/><path fill="#30333E" d="M499 276l-38 22v2a4 4 0 004 0l38-22v-2a4 4 0 00-4 0zm24-13l-9 4c-1 1-1 2 1 2a4 4 0 003 0l8-4v-2a4 4 0 00-3 0zm-78 44l-1 1v2a4 4 0 003 0l2-1v-2a4 4 0 00-4 0zm142-82l-24 14v2a4 4 0 004 0l24-13v-2a4 4 0 00-4-1zm-50 29l-8 5v2a4 4 0 004 0l8-4v-3a4 4 0 00-4 0zm61-35l-2 1v3a4 4 0 003 0l2-1v-3a4 4 0 00-3 0zm-42 24l-8 5v2a4 4 0 004 0l8-5v-2a4 4 0 00-4 0zm-121 70l-24 14v2a4 4 0 004 0l24-13c1-1 1-2-1-3a4 4 0 00-3 0zm-50 29l-8 5v2a4 4 0 003 0l9-5v-2a4 4 0 00-4 0zm-14 8l-9 5v2a4 4 0 004 0l8-4v-3a4 4 0 00-3 0zm33-19l-8 5v2a4 4 0 004 0l8-5v-2a4 4 0 00-4 0zm154-96v-2a4 4 0 00-4 0l-8 5v2a4 4 0 003 0l9-5zm-138 80v-2a4 4 0 00-4 0l-8 4v3a4 4 0 004 0l8-5zm110-68l-38 22v2a4 4 0 004 0l38-22v-2a4 4 0 00-4 0zm42-20v-2a4 4 0 00-4 0l-8 5v2a4 4 0 004 0l8-5zm-102 57a4 4 0 00-4 0l-24 13v3a4 4 0 004 0l24-14v-2zm-92 50l-22 13v2a4 4 0 004 0l22-12v-3a4 4 0 00-4 0zm102-54v-2a4 4 0 00-3 0l-2 1v2a4 4 0 003 0l2-1zm-75 43c2-1 2-2 0-2a4 4 0 00-3 0l-8 5v2a4 4 0 003 0l8-5zm183-109l-9 4v2a4 4 0 004 0l8-4v-2a4 4 0 00-3 0zM360 336v-2a4 4 0 00-4 0l-8 5v2a4 4 0 004 0l8-5zm26-17a4 4 0 004 0l38-22v-2a4 4 0 00-4 0l-38 22v2zm-15 7l-8 5c-2 0-2 1 0 2a4 4 0 003 0l8-5c2 0 2-1 0-2a4 4 0 00-3 0zm73-38l1-1c2 0 2-1 0-2a4 4 0 00-3 0l-2 1v2a4 4 0 004 0zm68-39v-3a4 4 0 00-3 0l-9 5v2a4 4 0 004 0l8-4zm-31 15a4 4 0 004 1l8-5v-2a4 4 0 00-4 0l-8 4v3-1zm57-33a4 4 0 004 0l38-22v-2a4 4 0 00-3 0l-39 22v2zm-85 40l8-5v-2a4 4 0 00-3 0l-9 5v2a4 4 0 004 0zm100-57l2-1v-3a4 4 0 00-4 0l-2 1v3a4 4 0 004 0zm8-5l8-5v-2a4 4 0 00-4 0l-8 5v2a4 4 0 004 0zm-94 54l9-5v-2a4 4 0 00-4 0l-8 5v2a4 4 0 003 0zm-33 19l8-4v-2a4 4 0 00-4 0l-8 4v2a4 4 0 004 1v-1zm-31 18l24-14v-2a4 4 0 00-4 0l-24 14v2a4 4 0 004 0zm-48 28l22-13v-2a4 4 0 00-4 0l-22 13v2a4 4 0 004 0zm136-79l38-22v-2a4 4 0 00-4 0l-38 22v2a4 4 0 004 0z" opacity=".5"/><path fill="url(#paint10_linear)" d="M470 284a4 4 0 00-4 0l-24 13v3a4 4 0 004 0l24-14v-2zm10-4v-2a4 4 0 00-3 0l-2 1v2a4 4 0 003 0l2-1zm32-31v-3a4 4 0 00-3 0l-9 5v2a4 4 0 004 0l8-4zm41-35l2-1v-3a4 4 0 00-4 0l-2 1v3a4 4 0 004 0zm-86 49l9-5v-2a4 4 0 00-4 0l-8 5v2a4 4 0 003 0zm24-14l38-22v-2a4 4 0 00-4 0l-38 22v2a4 4 0 004 0z"/><path fill="url(#paint11_linear)" d="M649 159l3 18c0 11-3 21-7 31-5 11-11 21-19 29-5 6-11 10-17 14L416 362c-12 7-23 9-33 8a29 29 0 01-21-18c-3-7-5-15-4-23 0-15 3-29 9-43 7-14 15-27 26-39a99 99 0 0133-23c1-15 5-29 11-43 7-16 17-31 29-45 8-8 17-15 26-21 14-8 27-10 38-8a34 34 0 0124 20c3 6 5 13 5 21l11-8c11-6 20-8 28-5a23 23 0 0114 16c6-4 14-5 21-4a22 22 0 0116 12zm-9 40l2-17c1-6-1-13-6-18a17 17 0 00-14-5c-5 0-9 2-13 4h-1c-2 2-4 1-5-1a19 19 0 00-11-15c-6-2-14-1-22 4-5 3-9 6-13 11l-2 1-3 1-2-3v-2c0-14-4-24-10-31a29 29 0 00-25-9c-8 0-16 3-22 7-13 8-24 18-33 30s-16 26-20 41c-3 9-5 19-5 28a10 10 0 01-5 9h-1c-5 2-9 3-13 6-11 6-20 15-28 25-7 11-13 22-17 35-3 7-4 16-4 24 0 11 3 20 8 26a25 25 0 0022 8c7-1 13-3 19-7l193-111a80 80 0 0031-41z"/><path fill="url(#paint12_linear)" d="M375 366l-74-43c-6-3-10-8-13-13-3-8-4-16-4-24 0-15 4-29 10-43s14-27 25-38a101 101 0 0133-24l74 43-11 5c-8 5-16 11-22 18-11 12-19 25-26 39-6 14-9 28-9 43-1 8 1 16 4 24 3 5 7 10 13 13z"/><path fill="url(#paint13_linear)" d="M466 68l74 43-10-4c-11-2-24 0-38 8-9 6-18 13-26 21a160 160 0 00-40 88l-74-43c2-14 5-29 11-43 8-16 17-31 30-44 7-9 16-16 26-21 14-8 27-11 37-9l10 4z"/><path fill="url(#paint14_linear)" d="M396 336l8-5a4 4 0 014 0v2l-8 5a4 4 0 01-4 0v-2z"/></g><path fill="url(#paint15_linear)" d="M197 522l-79 46c-9 5-24 4-34-2L8 522c-10-6-11-15-2-20l79-46c9-5 24-4 34 2l76 44c10 6 11 15 2 20z" opacity=".5"/><path fill="url(#paint16_linear)" d="M206 512v-35H14v35c0 4 3 7 8 10l72 41c9 6 24 7 32 2l75-44c4-2 6-5 5-9z"/><path fill="url(#paint17_linear)" d="M200 486l-74 44c-9 5-23 4-33-2l-72-41c-9-6-10-14-2-19l75-43c8-5 23-4 32 1l72 42c10 5 11 14 2 18z"/><path fill="#22242F" fill-rule="evenodd" d="M180 562c-1 2 0 5 3 10 5 7 9 10 14 10 5 1 1-7-2-11-2-2-5-6-6-12l-9 3z" clip-rule="evenodd"/><path fill="#FFDFCC" fill-rule="evenodd" d="M186 543l3 18 8 12c2 3-4 5-8 3l-8-12-5-18 10-3z" clip-rule="evenodd"/><path fill="#22242F" fill-rule="evenodd" d="M205 541c0 3 1 5 4 7 4 3 7 2 11 3 3 2 14 1 15-3 0-4-12-5-13-5l-17-2z" clip-rule="evenodd"/><path fill="#FFDFCC" fill-rule="evenodd" d="M204 525l9 12 5 4 9 3c4 1 3 4-2 5-3 1-8 0-13-2-2 0-4-1-5-3l-1-1-10-10 8-8z" clip-rule="evenodd"/><path fill="#252731" fill-rule="evenodd" d="M135 404c5-1 6-10-2-9-7-3-12-6-18 0-5 6-3 21-4 30-1 8-5 12 1 14 5 2 32-5 27-16-4-11-4-14-4-19z" clip-rule="evenodd"/><path fill="#3A3D48" fill-rule="evenodd" d="M139 470c19 8 31 15 35 23s9 25 13 51c-3 5-8 6-14 4l-17-53-28-16 11-9z" clip-rule="evenodd"/><path fill="#3A3D48" fill-rule="evenodd" d="M139 470c19 8 31 15 35 23s9 25 13 51c-3 5-8 6-14 4l-17-53-28-16 11-9z" clip-rule="evenodd" opacity=".5"/><path fill="#0D3677" fill-rule="evenodd" d="M179 454c-2 0-5-1-4-6 0-6 0-5 2-5l3 6-1 5z" clip-rule="evenodd"/><path fill="#FFDFCC" d="M163 458l17-6c2 1 5 2 7 1h5c1-1 0-1-3-2l5-2c2 1 3 2 4 1l-2-3h4l-3-1-3-1h-3l-9 1-20 4c-2 2-3 3-2 4l3 4z"/><path fill="#A9AAC4" fill-rule="evenodd" d="M194 449s-2-2-4-1l-3 1 3 2 4-2zM191 445l5 2 3 3-4-5h-4z" clip-rule="evenodd" opacity=".2"/><path fill="#586DFF" fill-rule="evenodd" d="M133 425h8a373 373 0 0120 20l15-2c-2 4-1 8 3 11-11 2-18 3-20 2-1 0-11-7-21-18-2-3-4-7-5-13z" clip-rule="evenodd"/><mask id="a" width="41" height="55" x="105" y="424" maskUnits="userSpaceOnUse"><path fill="#fff" d="M115 429l14-3 6-1c2-1 5 0 8 2 2 1 0 3 1 9s3 13 1 17c0 2-2 4-4 5 0 7 0 11-2 13-3 4-17 10-24 6s1-11-2-20c-3-10-9-15-8-20 1-4 7-6 10-8z"/></mask><g mask="url(#a)"><path fill="#586DFF" d="M115 429l14-3 6-1c2-1 5 0 8 2 2 1 0 3 1 9s3 13 1 17c0 2-2 4-4 5 0 7 0 11-2 13-3 4-17 10-24 6s1-11-2-20c-3-10-9-15-8-20 1-4 7-6 10-8z"/><path fill="#4B5FE9" fill-rule="evenodd" d="M103 437c6 3 10 8 11 14 3 9 7 10 13 9 5-1 9-3 16-2 7 0 3 3-2 2l-13 2c-5 2-10 2-12-1 0 6 0 10 10 11 11 2-14 18-20 1-5-11-6-23-3-36z" clip-rule="evenodd"/></g><ellipse cx="137.3" cy="504.2" fill="url(#paint18_linear)" opacity=".5" rx="26.8" ry="10.2"/><path fill="#353947" fill-rule="evenodd" d="M109 476c-2 10 0 18 5 24 6 5 24 8 55 9l24 26c4 1 9-1 14-6-13-18-23-30-29-35s-23-11-50-20l-19 2z" clip-rule="evenodd"/><path fill="#A9AAC4" fill-rule="evenodd" d="M126 472c3 1 3 4 2 8-1 6-3 6-4 5-1-2-3-8-1-10l3-3z" clip-rule="evenodd"/><mask id="b" width="20" height="35" x="117" y="408" maskUnits="userSpaceOnUse"><path fill="#fff" d="M130 422l1 4c1-1 3 0 4 2 2 4 2 7 1 11-1 3-6 4-11 2-7-4-7-12-6-13s3-1-1-14c-2-9 2-7 12 8z"/></mask><g mask="url(#b)"><path fill="#FFDFCC" d="M130 422l1 4c1-1 3 0 4 2 2 4 2 7 1 11-1 3-6 4-11 2-7-4-7-12-6-13s3-1-1-14c-2-9 2-7 12 8z"/><path fill="#A9AAC4" fill-rule="evenodd" d="M121 416s2 10 10 10c8-1 2-6 1-6l-11-4z" clip-rule="evenodd" opacity=".2"/></g><path fill="#FFDFCC" fill-rule="evenodd" d="M136 408c0 6 1 15-4 15s-8-1-11-5l-3-4-3-2c0-2 1-4 3-4 3 0 12 1 15-8 2 1 3 3 3 8z" clip-rule="evenodd"/><path fill="#44485A" fill-rule="evenodd" d="M164 468l-41 24a1 1 0 000 3l24 14h4l41-24a1 1 0 000-2l-24-15h-4z" clip-rule="evenodd"/><path fill="#646678" fill-rule="evenodd" d="M164 467l-41 24a1 1 0 000 2l24 14h4l41-23a1 1 0 000-3l-24-14h-4z" clip-rule="evenodd"/><path fill="#707385" fill-rule="evenodd" d="M148 508l8-29 3-3 38-21h2v1l-7 27-43 25h-1z" clip-rule="evenodd"/><path fill="#545769" fill-rule="evenodd" d="M149 508l8-28 3-3 38-22a1 1 0 011 1l-6 27-44 25z" clip-rule="evenodd"/><path fill="#30323F" d="M176 484l2-1v-3l-2 2v2z"/><path fill="#FFDFCC" fill-rule="evenodd" d="M126 472l19 4c2 0 9 0 12 2l-3 10-6-4-3-2h-24l1-8 4-2z" clip-rule="evenodd"/><path fill="#586DFF" fill-rule="evenodd" d="M108 433c-4 4-6 8-6 12 0 8 3 30 5 32 1 2 7 4 17 8-2-4-1-8 2-13l-11-3-3-24c0-7-2-11-4-12z" clip-rule="evenodd"/><path fill="#727484" fill-rule="evenodd" d="M247 373v38l-3 4-45 26a2 2 0 01-2-1v-37l2-5 45-26a2 2 0 013 1z" clip-rule="evenodd" opacity=".5"/><path fill="#6F7283" d="M208 404l13-7v-1l-13 7v1zm-1 0v5l-4 3v-6l4-2zm12-3v2l-11 6v-2l11-6zM208 415l13-7v-1l-13 7v1zm-1-1v6l-4 2v-6l4-2zm12-2v1l-11 6v-1l11-6zM208 425l13-7v-2l-13 7v2zm-1-1v5l-4 3v-6l4-2zm12-2v1l-11 6v-1l11-6z"/><path fill="url(#paint19_linear)" fill-rule="evenodd" d="M230 412c-4-2-8-8-6-15s8-12 12-11l4 1v14l-6 12-4-1z" clip-rule="evenodd"/><path fill="#2FEDD3" d="M233 413c-5-1-7-8-5-15 2-8 7-13 12-11 4 1 6 8 4 15s-7 12-11 11z"/><path fill="#9BFFEB" d="M229 395l-1 3c-2 7 0 13 4 15l6-13-9-5z"/><path fill="url(#paint20_linear)" d="M224 406c-1-4 0-10 1-11h4l3 18c-4 0-7-3-8-7z"/><path fill="#727484" fill-rule="evenodd" d="M186 408v36c0 2-1 4-3 5l-44 26a2 2 0 01-3-2v-36c0-2 1-4 3-5l44-26a2 2 0 013 2z" clip-rule="evenodd" opacity=".5"/><path fill="#6F7283" fill-rule="evenodd" d="M182 415l-5 3v25l5-3v-25zM173 420l-5 3v25l5-3v-25zM164 425l-5 3v25l5-3v-25zM155 430l-5 3v25l5-3v-25zM146 434l-5 3v25l5-3v-25z" clip-rule="evenodd"/><path fill="#383B49" fill-rule="evenodd" d="M182 430l-5 3v14l5-2v-15zM173 442l-5 3v7l5-2v-8zM164 440l-5 3v14l5-3v-14zM155 441l-5 3v18l5-3v-18zM146 439l-5 2v25l5-3v-24z" clip-rule="evenodd"/><path fill="#9BFFEB" d="M229 395l-1 3c-2 7 0 13 4 15l6-13-9-5z"/><path fill="url(#paint21_linear)" d="M798 219l-146-88-6-24 20-21 190 114-26 15c-18 6-29 5-32 4z" opacity=".5"/><path fill="#333745" d="M865 123c-4-3-5-10-4-17l1-3 6-3 3 2c3 2 3 5 2 8v6a5 5 0 00-1 0v3h-1v2l-1 1v1h-1v1h-2-1v-1a4 4 0 01-1 0z"/><path fill="#292C38" d="M799 165l1 1 4 2c0 3 2 6 5 8l-8 10c-1-1-12 8-12 8l-8-25 18-4zM693 97l1 1 4 3c0 3 2 6 4 8l-8 10c-1-1-12 8-12 8l-7-25 18-5z"/><path fill="#17181B" d="M832 204c0 5-2 9-4 10l-9 5c-3 2-1-2-5-4-9-5-16-17-16-27 0-5-4-5-2-7l10-5c2-1 6-1 10 1 9 5 16 17 16 27z"/><path fill="url(#paint22_linear)" d="M823 210c0 9-7 13-16 8-8-5-15-17-15-27 0-9 7-13 15-8 9 5 16 17 16 27z"/><path fill="url(#paint23_radial)" d="M808 182c-4-2-8-3-10-1 2-1 5 0 9 2 8 5 16 17 16 27 0 5-2 8-5 10 3-1 6-5 6-11 0-10-7-22-16-27z" style="mix-blend-mode:screen"/><path fill="url(#paint24_linear)" d="M808 187c-7-4-12-1-12 7 0 7 5 17 12 21 7 3 12 0 12-7 0-8-5-17-12-21zm5 15h3l2 1v6h-2l-3-4-1-2 1-1zm2-4l-4 1a1 1 0 01-1-1l-1-2v-5h2l4 6v1zm-8-8v5h-1a1 1 0 01-1 0l-4-5v-2a6 6 0 014 0 2 2 0 012 2zm-7 2l3 5 1 1v1h-1l-3 1-2-2v-3-3h2zm1 11h4a1 1 0 011 0v1l1 1v5l-2 1-4-6v-2zm8 9v-5l1-1a1 1 0 011 1l4 4v2a6 6 0 01-4 1 2 2 0 01-2-2z" style="mix-blend-mode:multiply"/><path fill="url(#paint25_linear)" d="M807 187c-6-4-12 0-12 7 0 8 6 17 12 21 7 4 12 1 12-7s-5-17-12-21zm5 15h4l1 2v6h-1l-4-5-1-1v-1l1-1zm2-3h-3a1 1 0 01-2-1v-6l1-1 4 6v2zm-8-9v5l-1 1a1 1 0 01-1-1l-4-4v-2a6 6 0 015-1 2 2 0 011 2zm-7 3l4 4v3h-4l-2-1v-4-3l2 1zm1 10h4a1 1 0 011 1l1 2v4l-1 1-5-6v-2zm9 9v-5-1a1 1 0 012 1l3 5v1a6 6 0 01-4 1 2 2 0 01-1-2z"/><path fill="#353535" d="M688 116l16-8 24 26-11 7-29-25z"/><path fill="#17181B" d="M719 136c0 4-2 7-4 8l-7 4c-3 2-1-1-5-3-7-5-13-15-13-24 0-4-4-4-2-5l8-5c2-1 6-1 9 1 8 5 14 15 14 24z"/><path fill="url(#paint26_linear)" d="M711 140c0 8-6 12-13 8-8-5-14-15-14-24 0-8 6-11 14-7 7 4 13 14 13 23z"/><path fill="url(#paint27_radial)" d="M698 116c-3-2-7-2-9-1 2 0 5 0 8 2 8 4 14 15 14 23 0 5-2 8-5 9 4-1 6-4 6-9 0-9-6-19-14-24z" style="mix-blend-mode:screen"/><path fill="url(#paint28_linear)" d="M698 121c-6-4-10-1-10 5 0 7 4 15 10 18 6 4 10 1 10-6 0-6-4-14-10-17zm4 13l3-1 1 2 1 2-1 3h-1l-3-4v-1-1zm2-4l-3 1a1 1 0 01-1-1l-1-1v-5h1l4 5v1zm-7-7v4l-1 1a1 1 0 01-1-1l-3-4v-1a5 5 0 014-1 2 2 0 011 2zm-6 2l3 4 1 1v1h-4c-1 1-1 0-1-1l-1-3 1-2h1zm1 9h3a1 1 0 011 1l1 1v4l-1 1-4-5v-2zm7 8v-4l1-1a1 1 0 011 0l3 4v2a5 5 0 01-4 0 2 2 0 01-1-1z" style="mix-blend-mode:multiply"/><path fill="url(#paint29_linear)" d="M697 121c-5-3-10-1-10 6 0 6 5 14 10 18 6 3 11 0 11-6 0-7-5-15-11-18zm4 13h4l1 1v5h-1l-4-4v-1-1zm2-3h-3a1 1 0 01-1-1v-5l1-1 4 5-1 2zm-7-8v5a1 1 0 01-1 0l-4-4v-2a5 5 0 014 0 2 2 0 011 1zm-6 2l3 4 1 1v1h-1l-3 1-1-2v-2-3h1zm1 10l4-1a1 1 0 011 1v6h-1l-4-5v-1zm8 7v-4-1a1 1 0 011 1l3 4 1 1a5 5 0 01-4 1 2 2 0 01-1-2z"/><path fill="url(#paint30_linear)" d="M880 116s21 15 31 29c5 6 4 15 5 17 3 7 2 23-3 29-6 6-36 21-36 21s-12 8-46 2c-6-28-28-37-28-37l4-14 30-19 34-35 9 7z"/><path fill="url(#paint31_linear)" d="M753 52s-12-7-30-2c-17 6-50 18-51 30 0 11 17 24 17 24l77 47 43 20 9-10-9-8-45-78-5-21-6-2z"/><path fill="#727484" d="M681 18l-46 27v-3l46-26v2z" opacity=".3"/><path fill="#696C83" d="M675 22l-40 23v-3l40-22v2z"/><path fill="url(#paint32_linear)" d="M653 34l7-5 13-7-13 8-7 4z" style="mix-blend-mode:color-dodge"/><path fill="#32333C" d="M675 22h-2l2-3 1 1-1 2z"/><path fill="#727484" d="M681 13l-46 26v-2l46-26v2z" opacity=".3"/><path fill="#696C83" d="M662 24l-27 15v-2l27-15v2z"/><path fill="url(#paint33_linear)" d="M646 32l8-4 6-4-6 4-8 4z" style="mix-blend-mode:color-dodge"/><path fill="#32333C" d="M662 25l-2-1 2-3 1 1-1 3z"/><path fill="url(#paint34_radial)" d="M662 22h1l-1-1-2 3h1l1-2z" style="mix-blend-mode:color-dodge"/><path fill="#727484" d="M681 8l-46 26v-2l46-27v3z" opacity=".3"/><path fill="#696C83" d="M657 21l-22 13v-2l22-13v2z"/><path fill="url(#paint35_linear)" d="M642 29l7-4 6-4h1l-1 1-6 3-7 4z" style="mix-blend-mode:color-dodge"/><path fill="#32333C" d="M657 22l-1-1 1-2 1 1-1 2z"/><path fill="url(#paint36_radial)" d="M657 19l1 1-1-1-1 2 1-2z" style="mix-blend-mode:color-dodge"/><path fill="#727484" d="M681 2l-46 26v-2l46-26v2z" opacity=".3"/><path fill="#696C83" d="M662 13l-27 15v-2l27-15v2z"/><path fill="url(#paint37_linear)" d="M646 21l8-4 6-4-6 4-8 4z" style="mix-blend-mode:color-dodge"/><path fill="#32333C" d="M661 14l-1-1 1-2 2 1-2 2z"/><path fill="url(#paint38_radial)" d="M662 11l1 1v-1h-1l-2 2h1l1-2z" style="mix-blend-mode:color-dodge"/><path fill="#727484" d="M681 40l-46 26v-2l46-26v2z" opacity=".3"/><path fill="#696C83" d="M657 54l-22 12v-2l22-12v2z"/><path fill="url(#paint39_linear)" d="M640 63l7-5 8-4-8 4-7 5z" style="mix-blend-mode:color-dodge"/><path fill="#32333C" d="M656 54h-1l1-3 2 1-2 2z"/><path fill="url(#paint40_radial)" d="M656 52h2l-2-1-1 3 1-2z" style="mix-blend-mode:color-dodge"/><path fill="#727484" d="M681 34l-46 27v-2l46-27v2z" opacity=".3"/><path fill="#696C83" d="M663 45l-28 16v-2l28-16v2z"/><path fill="url(#paint41_linear)" d="M646 54l8-5 7-5 1 1-8 4-8 5z" style="mix-blend-mode:color-dodge"/><path fill="#32333C" d="M663 45l-1-1 1-2 1 1-1 2z"/><path fill="url(#paint42_radial)" d="M663 42l1 1-1-1-1 2v1l1-3z" style="mix-blend-mode:color-dodge"/><path fill="#727484" d="M681 29l-46 26v-2l46-26v2z" opacity=".3"/><path fill="#696C83" d="M669 36l-34 19v-2l34-19v2z"/><path fill="url(#paint43_linear)" d="M653 45l7-5 8-4-8 4-7 5z" style="mix-blend-mode:color-dodge"/><path fill="#32333C" d="M669 36h-1l1-3 2 1-2 2z"/><path fill="url(#paint44_radial)" d="M669 34h2l-2-1-1 3 1-2z" style="mix-blend-mode:color-dodge"/><path fill="#727484" d="M681 24l-46 26v-2l46-26v2z" opacity=".3"/><path fill="#696C83" d="M669 30l-34 20v-2l34-20v2z"/><path fill="url(#paint45_linear)" d="M653 39l7-4 8-5v1l-8 4-7 4z" style="mix-blend-mode:color-dodge"/><path fill="#32333C" d="M669 31l-1-1 1-2 2 1-2 2z"/><path fill="url(#paint46_radial)" d="M669 28l2 1-2-1-1 2 1-2z" style="mix-blend-mode:color-dodge"/><path fill="url(#paint47_linear)" d="M878 117s24 22 27 29c4 7 2 18-3 22l-17 10s-19 10-46-3l-14-7c-12-7-22-17-29-29l31-19 46-8 5 5z"/><path fill="#545159" d="M873 119c-7 7-27 23-55 30-4 1-9 1-13-1l-5-4-20-26c-9-12-21-22-35-30-12-7-28-13-56-11 0 0 50-25 67-25 24 1 70 6 118 59 2 2 2 6-1 8z"/><path fill="#5D6172" d="M873 119c-7 7-27 23-55 30-4 1-9 1-13-1l-5-4-20-26c-9-12-21-22-35-30-12-7-28-13-56-11 0 0 50-25 67-25 24 1 70 6 118 59 2 2 2 6-1 8z"/><path fill="#323445" d="M802 146l-2-2-20-26a129 129 0 001 0l20 27 1 1z"/><path fill="#2C2F3D" d="M846 85c-37-28-70-32-89-32a253 253 0 00-68 24s50-25 67-25c19 1 53 4 90 33z"/><path fill="#323445" d="M874 119c-8 8-27 24-56 30h-12l-4-3 3 2c4 2 9 2 13 1 28-7 48-23 55-30 3-2 3-6 1-8a214 214 0 000 1c2 2 2 5 0 7z"/><path fill="#3D4151" d="M826 142a116 116 0 0044-26v-2l-23-23-21 51z" opacity=".2"/><path fill="#525663" d="M825 176s-3 13 7 17 29 2 29 2 9-2 8-10v-1s-30-4-44-8z"/><path fill="#5D6172" d="M827 177s-3 12 7 15c9 4 27 2 27 2s9-1 8-9v-1s-29-3-42-7z"/><path fill="#525663" d="M911 161l1-14s4 10 3 14v2h-2l-2-2z"/><path fill="#5D6172" d="M911 161l1-15 3 15v1c0 2-2 2-3 1l-1-2z"/><path fill="#242632" d="M878 189v8s24-10 32-21v-7s-10 13-32 20z"/><path fill="#3C3E4B" d="M878 189v8s23-10 31-20v-7s-10 12-31 19z"/><path fill="#2C2F3D" d="M673 80h-1v12h9c-5-5-7-10-8-12z"/><path fill="url(#paint48_linear)" d="M812 173l-11-10-111-63-9-7h-9v17c1 9 10 17 10 17-4-24 16-14 16-14 16 9 18 36 18 36l73 45s-5-22 14-17 9-4 9-4z"/><path fill="#5D6172" d="M747 98s-5 12-5 26l47 27h2s-11-29-27-41c-16-13-17-12-17-12zM742 95s-6 16-6 25l-34-20s0-7 4-8c4-2 20-7 36 3z"/><path fill="url(#paint49_linear)" d="M772 110c-7-7-34-29-64-33 0 0 40-23 63-25 0 0 37 4 69 29l-68 29z"/><path fill="url(#paint50_linear)" d="M774 57l20 4c10 3 24 9 38 19l-52 22c11-11 11-30-1-40l-5-5z" opacity=".5"/><path fill="#2C2F3D" fill-rule="evenodd" d="M685 94l-10-7v2h-3v10l5 1c3 0 6-2 8-6z" clip-rule="evenodd"/><path fill="url(#paint51_radial)" fill-rule="evenodd" d="M684 93c-4-2-11-6-12-10l-1 15c4 1 10 3 13-5z" clip-rule="evenodd"/><path fill="#2C2F3D" d="M736 120l-34-20v-1l34 20v1zM790 151h-1l-47-27v-1l48 28z"/><path fill="#303340" d="M797 148h-1v-1h-1a3 3 0 000-1h-2v-1h-2-1l-1-1h-6a52 52 0 00-1 0h-2-1-2l-1 1h-1v1l-2 3 1 3 1 2a6 6 0 011-6v-1h1v-1h4l1-1h1v1a209 209 0 011 0h6v1h4v1h2v1h1v1-2z"/><path fill="url(#paint52_linear)" d="M797 154h-1c-2 3-9 5-16 4l-3-1c-2-1-3-3-3-6l2-3c2-2 5-3 8-2h6v1h4v1h1a4 4 0 011 0v1h1v1a3 3 0 010 1h1v1a4 4 0 01-1 0v2z"/><path fill="#2A2D39" d="M795 155v1c-2 3-8 7-13 8h-3l-1-2 2-3a16 16 0 017-5h2v-1h3v-1h4v1a1 1 0 010 1 3 3 0 010 1h-1z" opacity=".3"/><path fill="#444859" d="M841 192a5 5 0 100-10 5 5 0 000 10zM858 189a3 3 0 10-6-1 3 3 0 006 1z" opacity=".2"/><path fill="#333745" d="M797 154h-1c-2 3-10 5-16 4l-3-1c-2-1-3-3-3-6l2-3c2-2 5-3 8-2h6v1h4v1h2v1h1v2h1v1a3 3 0 01-1 0v2z"/><path fill="#4C5163" d="M797 152a3 3 0 010 1 6 6 0 010 1h-1v1c-3 3-9 4-16 3l-3-1-2-5 1 2 4 1c6 1 14-1 17-4a2 2 0 010 1z" opacity=".3"/><path fill="#727484" d="M871 142l30-15 7 21-30 16-7-22z" opacity=".1"/><path fill="#727484" d="M878 144l40-21 9 29-40 21-9-29z" opacity=".1"/><path fill="#727484" d="M886 146l42-22 10 31-42 22-10-31z" opacity=".3"/><path fill="#818389" d="M911 150v-1l18-9a1 1 0 110 1l-17 9h-1zM910 147v-1l18-9a1 1 0 110 1l-17 9h-1zM912 153v-1l17-9a1 1 0 111 1l-17 9h-1zM913 155v-1l8-4a1 1 0 010 1l-7 4h-1z"/><path fill="url(#paint53_linear)" d="M903 166l4-1c3-2 5-8 3-13l-2-2h-2v3c2 4 1 8-1 9a4 4 0 01-3 1l-4-4c-2-3-1-7 2-9h1l1-2c1-1 0-2-1-2l-3 1c-4 3-5 9-3 13 1 3 3 5 6 6h2z"/><path fill="url(#paint54_linear)" d="M966 293c12 0 22-6 22-13s-10-13-23-13c-12 0-22 6-22 13s10 13 23 13z" opacity=".2"/><path fill="#22242F" fill-rule="evenodd" d="M980 278v3c0 1-3 1-6-1l-4-3c0-3 2-2 4-1l6 2zM963 283v3c0 1-3 1-6-1l-4-3c0-2 3-1 4-1l6 2z" clip-rule="evenodd"/><path fill="#FDDCC8" fill-rule="evenodd" d="M942 157s-4-4-6-3h-5c0 1 5 0 4 3 0 2 5 2 6 2l1-2z" clip-rule="evenodd"/><path fill="#82859A" fill-rule="evenodd" d="M974 140l3 2c4 5-8 19-12 21-5 2-25-3-25-3v-4s21 3 23 2 7-13 11-18z" clip-rule="evenodd"/><path fill="#434859" fill-rule="evenodd" d="M949 152l1 7v1l1 20v10c0 7-3 18 0 37l5 24c2 8 2 32 2 32 3 2 5 0 5 0l2-26c1-5 0-9-1-13l1-23 6 22c2 6 5 22 4 34 3 3 5 1 5 1s4-26 1-36c-3-13 0-30-1-41l-3-19c0-4 7-42-2-43h-2a51 51 0 00-24 13z" clip-rule="evenodd"/><path fill="#65697D" fill-rule="evenodd" d="M950 159v1l1 20c6-1 5-19 5-19l-6-2z" clip-rule="evenodd"/><path fill="#FDDCC8" fill-rule="evenodd" d="M927 166l-2-4c-1 2-3 1-5-1-1-2-4 2 0 5 3 3 5 2 6 3l1-3z" clip-rule="evenodd"/><path fill="#82859A" fill-rule="evenodd" d="M949 152s6 1 7 7c0 5-5 25-9 27-4 1-21-17-21-17-1-1 0-3 1-4l17 12c2-3 2-21 5-25z" clip-rule="evenodd"/><path fill="#82859A" fill-rule="evenodd" d="M960 159c1 6 1 11-1 16 0 0 10-1 15-4 1-4 3-28-1-32a51 51 0 00-20 9c3 2 7 6 7 11z" clip-rule="evenodd"/><path fill="#FDDCC8" fill-rule="evenodd" d="M960 144s9 2 11-4c0 0-2-5-1-7 0-3 4-11-2-15-6-5-15-2-17 2v10l2 6 3 5c2 0 4-1 4 3z" clip-rule="evenodd"/><path fill="#252731" fill-rule="evenodd" d="M961 135s2-1 4 2h5l1-4c1-2 2-6 1-9s-9-12-16-7c-8 4-6 7-6 7s-1 3 3 4c2 1 3 4 4 6l1-1 1-3c3 0 2 5 2 5z" clip-rule="evenodd"/><path fill="url(#paint55_linear)" fill-rule="evenodd" d="M953 127s-11-3-9-7 6-4 10-3c5 2-1 10-1 10z" clip-rule="evenodd"/><path fill="#2FEDD3" fill-rule="evenodd" d="M950 125c3 3 9 6 15 5 6 0 11-2 9-11-2-7-10-9-14-9s-8 2-10 6c-1 2-2 7 0 9z" clip-rule="evenodd"/><path fill="#2B2E3A" d="M779 480a90 90 0 000-14 106 106 0 0110 5l-1 18h-1c-3 1-6-1-8-4v-5z"/><path fill="#22242F" d="M789 495c0 2-2 4-4 4-6 0-10-9-15-10l-2-8 2 1 9 3c2 3 5 5 8 4h1l1 6z"/><path fill="#292B38" d="M779 480v5l-9-3 4-4 5 2z"/><path fill="#191B24" d="M789 496a4 4 0 01-4 4c-6 0-10-9-15-10v-1c5 1 9 10 15 10 2 0 4-2 4-4v1z"/><path fill="#22242F" d="M767 477l7 1-4 4-2-1-1-4z"/><path fill="url(#paint56_linear)" d="M842 497l-70 31c-4-8-22-34-29-32-7 3-6 15-6 15l-32 2-39 22h21c6 0 11 2 15 4 7 5 15 11 15 14 0 4-5 6-9 2-5-4-32 8-23 19 11 13 25 6 32 2l7-3c6 0 12-2 17-5l11 6 24-11 25-15 58-33v-14l-17-4zm-113 48h4l2 2-2 1h-1c-4 1-6 1-6-1-1-1 3-2 3-2z" opacity=".4"/><path fill="url(#paint57_linear)" d="M886 427v72l-13 7-5 3-5 3-4 3-5 2v-72l13-7 2-2 12-6 4-2 1-1z"/><path fill="url(#paint58_linear)" d="M854 445v72l-33-19v-72l33 19z"/><path fill="#248896" d="M886 497v2l-13 7-5 3-5 3-4 3-5 2v-1l5-3 4-2 5-3 5-3 13-8z"/><g opacity=".5"><path fill="url(#paint59_linear)" d="M885 428l-22 84-9 5v-11l15-70 16-8z" opacity=".2" style="mix-blend-mode:screen"/><path fill="url(#paint60_linear)" d="M886 478v21l-13 7 13-28z" opacity=".1" style="mix-blend-mode:screen"/><path fill="url(#paint61_linear)" d="M886 427v6l-18 76-5 3-4 3 22-85 4-2 1-1z" opacity=".1" style="mix-blend-mode:multiply"/><path fill="url(#paint62_linear)" d="M867 438l-13 64v-57l13-7z" opacity=".1" style="mix-blend-mode:multiply"/></g><path fill="#248896" d="M854 516v1l-33-19v-1l33 19z"/><path fill="url(#paint63_linear)" d="M852 516l-13-7-18-76v-7l9 5 22 85z" opacity=".1" style="mix-blend-mode:multiply"/><path fill="#88EDF6" d="M886 427l-11 6-16 9-5 3-5-3-15-9-13-7h1l3-2 19-11 9-5 9 5 22 13 2 1z"/><path fill="#C2F2ED" d="M886 427v1h-1l-4 2-11 7-2 1-13 8v71h-1v-72l13-7 2-2 12-6 4-2 1-1z"/><path fill="url(#paint64_linear)" d="M875 433l-16 9h-10l-15-9h41z" opacity=".1" style="mix-blend-mode:screen"/><path fill="url(#paint65_linear)" d="M884 426h-62l3-2 19-11h18l22 13z" opacity=".2" style="mix-blend-mode:screen"/><path fill="#273598" d="M854 445v72l-2-1-13-7-18-11v-72l9 5 24 14z" opacity=".3"/><path fill="url(#paint66_linear)" d="M847 468v54l-13 7-6 3-5 3-4 2-4 3v-54l13-7 2-2 11-6 4-2 2-1z"/><path fill="url(#paint67_linear)" d="M815 486v54l-33-19v-54l33 19z"/><path fill="#248896" d="M847 520v2l-13 7-6 3-5 3-4 2-4 3v-2l4-2 4-2 5-4 6-3 13-7z"/><g opacity=".5"><path fill="url(#paint68_linear)" d="M845 469l-22 66-8 5v-11l15-52 15-8z" opacity=".2" style="mix-blend-mode:screen"/><path fill="url(#paint69_linear)" d="M847 501v21l-13 7 13-28z" opacity=".1" style="mix-blend-mode:screen"/><path fill="url(#paint70_linear)" d="M847 468v6l-19 58-5 3-4 2 22-66 4-2 2-1z" opacity=".1" style="mix-blend-mode:multiply"/><path fill="url(#paint71_linear)" d="M828 479l-13 46v-39l13-7z" opacity=".1" style="mix-blend-mode:multiply"/></g><path fill="#248896" d="M815 538v2l-33-19v-2l33 19z"/><path fill="url(#paint72_linear)" d="M812 538l-12-7-18-57v-7l8 5 22 66z" opacity=".1" style="mix-blend-mode:multiply"/><path fill="#88EDF6" d="M847 468l-12 6-15 9-5 3-5-3-7-4-9-5-12-7h1l2-2 17-10 3-1 9-5 6 3 3 2 4 3 18 10 2 1z"/><path fill="#C2F2ED" d="M847 468l-1 1-4 2-11 7-3 1-13 7v54-54l13-7 2-2 11-6 4-2 2-1z"/><path fill="url(#paint73_linear)" d="M835 474l-15 9h-10l-16-9h41z" opacity=".1" style="mix-blend-mode:screen"/><path fill="url(#paint74_linear)" d="M845 467h-62l2-2 17-10 3-1h18l4 3 18 10z" opacity=".2" style="mix-blend-mode:screen"/><path fill="#273598" d="M815 486v54l-3-2-12-7-18-10v-54l8 5 25 14z" opacity=".3"/><path fill="#A1B0D7" d="M826 467c-2 3-4 6-9 9-4 3-9 4-14 3l-9-5-12-7h1l2-2 17-10 7-1h14l4 3c1 3 1 7-1 10z" opacity=".2"/><path fill="#494F61" d="M805 463c7 0 14-5 20-10v2c-5 6-13 11-20 11-3 0-10-1-13-3v-3c4 2 11 3 13 3z"/><path stroke="url(#paint75_linear)" stroke-dasharray="4 4" stroke-linecap="round" stroke-width="1.5" d="M903 489l-150 86" opacity=".5"/><path fill="#FDDCC8" fill-rule="evenodd" d="M790 388v6s10 2 13-2l1-10-14 6z" clip-rule="evenodd"/><path fill="#FDDCC8" fill-rule="evenodd" d="M803 381c1-1 5-13-2-18s-18-4-21 0-2 7-2 9l2 12 4 7c2 1 6 0 8-2 0 0 11-4 11-8z" clip-rule="evenodd"/><path fill="#252731" fill-rule="evenodd" d="M789 380s-1-5 2-5c2-1 3 2 3 3l-2 5s4 3 4 5c0 0 6 2 8-1 1-5 11-15 2-25 0 0-1-9-12-9-2 0-7 3-13 3-4 1-7 6-4 10 2 2 5 4 9 5 0 0 0 8 3 9z" clip-rule="evenodd"/><path fill="#545769" d="M778 433v10l-6-7 6-3z"/><path fill="#353947" d="M826 460c0 5-5 12-10 14l-3 1-5 3c-5 1-11-3-19-7l-7-4-3-1a313 313 0 00-17-6 66 66 0 016 21 58 58 0 002 9l3 7-4 1-8-2v-1l-2-4-4-11s-12-26-12-33c0-4 3-6 7-7l19 11 2-2c4 4 8 9 12 9 3 0 5-3 7-8l2-12 1 13v1a62 62 0 01-1 11c3 2 10 3 13 3 7 0 15-5 20-11l1 5z"/><path fill="url(#paint76_linear)" d="M771 411l-3 2 6-1 3 1-19 11-14 8-12-29 37-22 10 26-4 2c-3 0-6 0-6 2h2z" opacity=".8"/><path fill="#fff" d="M751 407h2v-1a7 7 0 013-6l3-2 2 1v2h1c1-1 2 0 2 1v2a2 2 0 01-1 2h-1a5 5 0 01-2 3c-1 1-2 0-2-1l-3 3a5 5 0 01-2 3l-2-1h-1-1v-2a5 5 0 012-4zm9-7l-1-1-3 2a5 5 0 00-3 5l7-4v-2zm0 8a3 3 0 001-2l-1-1a3 3 0 00-1 3h1zm-7 5a3 3 0 001-2l-1-1a3 3 0 00-2 2l2 1zm-3-1c0 1 0 1 0 0h1a5 5 0 012-3c1-1 2 0 2 1l3-2a5 5 0 012-4l2 1h1a1 1 0 000-1v-2h-2l-9 6h-1a3 3 0 00-1 3v1z"/><path fill="#242633" d="M771 448v1l-2 2v-1l2-2zM769 450v1l-19-11-7-4v-1l26 15z"/><path fill="#414456" d="M771 431c-3-1-5-4-5-6l14-9-2 14c-3 1-3 3-7 1z"/><path fill="#545769" d="M771 448l-2 2-4-2-22-13 15-10 1 2 1 1-3 2h-2c-1 0-3 1-1 1l-5 4 12 7 1-1 3-2v1l6 8zM766 425l-1-2h-1l-1-1 16-8h1v2l-14 9z"/><path fill="#414456" d="M764 426v2l-2-1 2-1z"/><path fill="#545769" d="M764 423v3l-2 1-2-2 3-3 1 1z"/><path fill="#292B38" d="M759 491l2 4a32 32 0 00-13 0l2-5 9 1z"/><path fill="#545769" d="M760 425l-2-1 18-11 3 1-16 8-3 3z"/><path fill="#545769" d="M758 425l-15 10-13-33 40-23 11 28h-2l-10-26-37 22 12 29 14-8v1z"/><path fill="#414456" d="M760 430h-3l3-2 1 2h-1zM765 439l-3 2-1 1-12-7 5-4h1l5 2-5 2c1 1 4-1 10 4z"/><path fill="#868AA3" d="M743 435l18-12 19-11-18 12-19 11z" opacity=".8"/><path fill="#FDDCC8" d="M759 427l-1-2v-1l2 1 2 2 2 1v-2-3h1l1 2c0 2 2 5 5 6 4 2 4 0 7-1v3l-6 3c-1-2-1-2-3-2s-4 3-4 5c-8-6-10-2-10-4l5-2a7 7 0 00-5-2c-2 0-1-1 0-1h6l-1-2-1-1z"/><path fill="#22242F" d="M750 490l-2 5a42 42 0 0113 0v1l8 2 4-1 1 8-4 2c-2 0-26-5-27-11v-1c0-3 2-5 7-5z"/><path fill="#191B24" d="M770 508c-2 0-27-5-27-12 1 6 25 11 27 11l4-2v1c-1 2-3 2-4 2z"/><path fill="#2B2E3A" d="M773 497l-4 1-16-41 9 3a66 66 0 016 21 58 58 0 002 9l3 7z"/><path fill="#FDCFB3" d="M772 436l-2-2h-2l-2 2-1 3v-3l2-2 4-1 1 3z"/><path fill="url(#paint77_linear)" d="M828 411a43 43 0 01-3 17l-1 15 1 10c-6 5-13 10-20 10l-7-1-6-2 1-9-1-13-2 13c-2 4-4 7-7 7-4 0-8-5-12-9v-1l-6-8v-1c0-2 2-5 4-5s2 0 3 2l6 7v-10-3a51 51 0 012-16l4-6 5-8c6-1 13-4 19-11h1l8-1c9 0 11 16 11 23z"/><path fill="#2A55D0" d="M825 453c-6 5-13 10-20 10l-7-1-6-2 6 2h7c7 0 14-4 19-10l1 1z"/><path fill="#2A55D0" d="M798 462l-6-2 1-9-1-13 1-8s4 19 5 32zM825 428l-1-14 2 9-1 5zM789 399v1a58 58 0 0010-5l10-6a31 31 0 01-20 11v1-2z"/><path fill="#DDE1ED" d="M805 388l4 1c-7 7-14 10-20 11v-6h2l12-5 2-1z"/><path fill="#FEFEFE" d="M809 389l-1 1-3-1h-2a51 51 0 01-14 6v-1h2l12-5 2-1 4 1z"/><path fill="#FDDCC8" d="M779 414l-3-1-2-1-6 1 3-2h-2c0-2 3-2 6-2l4-2a16 16 0 015 1l-4 6h-1z"/><path fill="#F8C09F" d="M771 411l4-1 3 1h-7zM775 409a14 14 0 015 0h-5z"/><path fill="#A1B0D7" d="M771 448l-2 2-4-2-3-6v-1l-7-6c1 1 4-1 10 4v1l6 8z" opacity=".7"/><path fill="#111F8B" d="M793 451v1l-3-2 2-12 1 13z"/><path fill="url(#paint78_linear)" d="M808 508v36l-13 7-6 4-5 3-4 2-4 3v-37l13-7 2-1 11-7 4-2 2-1z"/><path fill="url(#paint79_linear)" d="M776 526v37l-33-19v-37l33 19z"/><path fill="#248896" d="M808 543v1l-13 7-6 4-5 3-4 2-4 3v-2l4-3 4-2 5-3 6-3 13-7z"/><g opacity=".5"><path fill="url(#paint80_linear)" d="M808 523v21l-13 7 13-28z" opacity=".1" style="mix-blend-mode:screen"/><path fill="url(#paint81_linear)" d="M808 508v6l-19 41-5 3-4 2 22-49 4-2 2-1z" opacity=".1" style="mix-blend-mode:multiply"/><path fill="url(#paint82_linear)" d="M789 519l-13 28v-21l13-7z" opacity=".1" style="mix-blend-mode:multiply"/></g><path fill="#248896" d="M776 561v2l-33-19v-2l33 19z"/><path fill="url(#paint83_linear)" d="M773 561l-12-7-18-40v-7l8 5 22 49z" opacity=".1" style="mix-blend-mode:multiply"/><path fill="#88EDF6" d="M808 508l-12 6-15 10-5 2-5-2-7-4-9-6-12-7h1l2-2 20-11 9-5 9 5 13 8 9 5 2 1z"/><path fill="#C2F2ED" d="M808 508v1h-1l-4 2-11 7-3 1-13 8v36-37l13-7 2-1 11-7 4-2 2-1z"/><path fill="url(#paint84_linear)" d="M796 514l-15 10h-10l-16-10h41z" opacity=".1" style="mix-blend-mode:screen"/><path fill="url(#paint85_linear)" d="M806 507h-62l2-2 20-11h18l22 13z" opacity=".2" style="mix-blend-mode:screen"/><path fill="#273598" d="M776 526v37l-3-2-12-7-18-10v-37l8 5 25 14z" opacity=".3"/><path fill="#CCFFF5" d="M762 414l-4 3v-1l4-3v1zm-4 2l4-2v-1l-4 3zM758 416z"/><path fill="#CCFFF5" d="M758 416h1v-1l-1 1zM759 416v-1 1zM759 416l1-1h-1v1zM759 415h1-1zM760 415v-1 1zm0 0v-1 1zM761 415h-1v-1h1v1zm-1 0h1v-1h-1v1zM761 414v1-1zm0 0zM762 414h-1 1zm-1 0h1-1zM762 414h-1l1-1v1zm0 0v-1 1z"/><path fill="#A1B0D7" d="M797 502c-1 2-5 6-12 9l-21 9-9-6-12-7h1l2-2 20-11 9-5 9 5 13 8z" opacity=".2"/><defs><linearGradient id="paint0_linear" x1="345.9" x2="339.7" y1="432.7" y2="378.6" gradientUnits="userSpaceOnUse"><stop offset=".2" stop-color="#51C9FC"/><stop offset=".4" stop-color="#33E9D8"/><stop offset="1" stop-color="#2FEDD3"/></linearGradient><linearGradient id="paint1_linear" x1="688" x2="794" y1="495.3" y2="497.8" gradientUnits="userSpaceOnUse"><stop stop-color="#51C9FC"/><stop offset=".4" stop-color="#33E9D8"/><stop offset="1" stop-color="#2FEDD3"/></linearGradient><linearGradient id="paint2_linear" x1="724.6" x2="729.2" y1="280.1" y2="234.1" gradientUnits="userSpaceOnUse"><stop stop-color="#51C9FC"/><stop offset=".4" stop-color="#33E9D8"/><stop offset="1" stop-color="#2FEDD3"/></linearGradient><linearGradient id="paint3_linear" x1="612.3" x2="102.1" y1="415.4" y2="320.9" gradientUnits="userSpaceOnUse"><stop stop-color="#0C0E1C"/><stop offset="1" stop-color="#05060D" stop-opacity="0"/></linearGradient><linearGradient id="paint4_linear" x1="206.1" x2="811.8" y1="357.8" y2="359.8" gradientUnits="userSpaceOnUse"><stop offset=".1" stop-color="#282B35"/><stop offset=".5" stop-color="#373C4A"/><stop offset=".9" stop-color="#2D2F3D"/></linearGradient><linearGradient id="paint5_linear" x1="265.1" x2="721.9" y1="347.7" y2="201.8" gradientUnits="userSpaceOnUse"><stop stop-color="#323643"/><stop offset="1" stop-color="#303343"/></linearGradient><linearGradient id="paint6_linear" x1="395.9" x2="397" y1="290" y2="316.1" gradientUnits="userSpaceOnUse"><stop stop-color="#2AC1FF"/><stop offset="1" stop-color="#9BFFEB"/></linearGradient><linearGradient id="paint7_linear" x1="415.5" x2="294" y1="357.8" y2="267.4" gradientUnits="userSpaceOnUse"><stop/><stop offset="1" stop-opacity="0"/></linearGradient><linearGradient id="paint8_linear" x1="616.3" x2="598.5" y1="109.3" y2="141.1" gradientUnits="userSpaceOnUse"><stop offset="0" stop-color="#151721"/><stop offset=".3" stop-color="#4B5167"/><stop offset=".9" stop-color="#282B37"/></linearGradient><linearGradient id="paint9_linear" x1="569.2" x2="555.9" y1="102.6" y2="125.1" gradientUnits="userSpaceOnUse"><stop stop-color="#151721"/><stop offset=".2" stop-color="#515873"/><stop offset="1" stop-color="#282B37"/></linearGradient><linearGradient id="paint10_linear" x1="541.9" x2="563" y1="220.9" y2="285.4" gradientUnits="userSpaceOnUse"><stop stop-color="#FF626D"/><stop offset="1" stop-color="#FFC371"/></linearGradient><linearGradient id="paint11_linear" x1="396.1" x2="558.9" y1="124.3" y2="386.8" gradientUnits="userSpaceOnUse"><stop stop-color="#2AC1FF"/><stop offset="1" stop-color="#9BFFEB"/></linearGradient><linearGradient id="paint12_linear" x1="364.2" x2="272.7" y1="137.6" y2="308.6" gradientUnits="userSpaceOnUse"><stop offset="0" stop-color="#151721"/><stop offset=".6" stop-color="#434652"/><stop offset="1" stop-color="#282B36"/></linearGradient><linearGradient id="paint13_linear" x1="486.4" x2="396.4" y1="43" y2="207.5" gradientUnits="userSpaceOnUse"><stop offset="0" stop-color="#151721"/><stop offset=".6" stop-color="#434652"/><stop offset="1" stop-color="#282B36"/></linearGradient><linearGradient id="paint14_linear" x1="406.7" x2="407.8" y1="330.1" y2="337" gradientUnits="userSpaceOnUse"><stop stop-color="#FF626D"/><stop offset="1" stop-color="#FFC371"/></linearGradient><linearGradient id="paint15_linear" x1="157.2" x2="3.9" y1="538.5" y2="510.3" gradientUnits="userSpaceOnUse"><stop stop-color="#0C0E1C"/><stop offset="1" stop-color="#05060D" stop-opacity="0"/></linearGradient><linearGradient id="paint16_linear" x1="22.5" x2="220.8" y1="513.3" y2="513.9" gradientUnits="userSpaceOnUse"><stop offset=".1" stop-color="#282B35"/><stop offset=".5" stop-color="#373C4A"/><stop offset=".9" stop-color="#2D2F3D"/></linearGradient><linearGradient id="paint17_linear" x1="41.8" x2="191.3" y1="504.3" y2="456.5" gradientUnits="userSpaceOnUse"><stop stop-color="#323643"/><stop offset="1" stop-color="#303343"/></linearGradient><linearGradient id="paint18_linear" x1="152" x2="108.6" y1="508.8" y2="496.3" gradientUnits="userSpaceOnUse"><stop stop-color="#0C0E1C"/><stop offset="1" stop-color="#05060D" stop-opacity="0"/></linearGradient><linearGradient id="paint19_linear" x1="236.7" x2="224.7" y1="393.3" y2="402" gradientUnits="userSpaceOnUse"><stop stop-color="#73FFEC"/><stop offset="1" stop-color="#20CEB6"/></linearGradient><linearGradient id="paint20_linear" x1="223.3" x2="229.7" y1="406" y2="405.4" gradientUnits="userSpaceOnUse"><stop stop-color="#C0FFF4"/><stop offset="1" stop-color="#4DFFDB"/></linearGradient><linearGradient id="paint21_linear" x1="808.5" x2="649.2" y1="182.9" y2="156.3" gradientUnits="userSpaceOnUse"><stop stop-color="#0C0E1C"/><stop offset="1" stop-color="#05060D" stop-opacity="0"/></linearGradient><linearGradient id="paint22_linear" x1="1553" x2="3177.1" y1="6700.7" y2="6700.7" gradientUnits="userSpaceOnUse"><stop offset="0" stop-color="#1E1F21"/><stop offset=".3" stop-color="#2C2E30"/><stop offset=".8" stop-color="#515359"/><stop offset="1" stop-color="#5D6066"/></linearGradient><linearGradient id="paint24_linear" x1="796" x2="820" y1="200.8" y2="200.8" gradientUnits="userSpaceOnUse"><stop stop-color="#BCBEC0"/><stop offset="1" stop-color="#E6E7E8"/></linearGradient><linearGradient id="paint25_linear" x1="6763.4" x2="7725.6" y1="9023.1" y2="9023.1" gradientUnits="userSpaceOnUse"><stop stop-color="#BCBEC0"/><stop offset="1" stop-color="#E6E7E8"/></linearGradient><linearGradient id="paint26_linear" x1="1337" x2="2729.6" y1="5716.6" y2="5716.6" gradientUnits="userSpaceOnUse"><stop offset="0" stop-color="#1E1F21"/><stop offset=".3" stop-color="#2C2E30"/><stop offset=".8" stop-color="#515359"/><stop offset="1" stop-color="#5D6066"/></linearGradient><linearGradient id="paint28_linear" x1="1331.9" x2="2158.2" y1="4444.4" y2="4444.4" gradientUnits="userSpaceOnUse"><stop stop-color="#BCBEC0"/><stop offset="1" stop-color="#E6E7E8"/></linearGradient><linearGradient id="paint29_linear" x1="1305.4" x2="2131.9" y1="4457.9" y2="4457.9" gradientUnits="userSpaceOnUse"><stop stop-color="#BCBEC0"/><stop offset="1" stop-color="#E6E7E8"/></linearGradient><linearGradient id="paint30_linear" x1="819.9" x2="914.4" y1="188.8" y2="170.1" gradientUnits="userSpaceOnUse"><stop stop-color="#3B404F"/><stop offset="1" stop-color="#272935"/></linearGradient><linearGradient id="paint31_linear" x1="693.7" x2="813" y1="139.4" y2="113.1" gradientUnits="userSpaceOnUse"><stop stop-color="#3B404F"/><stop offset="1" stop-color="#3B3F4E"/></linearGradient><linearGradient id="paint32_linear" x1="53300.4" x2="52850.2" y1="107780" y2="108228" gradientUnits="userSpaceOnUse"><stop stop-color="#383A47"/><stop offset="1" stop-color="#696C83"/></linearGradient><linearGradient id="paint33_linear" x1="36254.7" x2="35947.6" y1="73539.2" y2="73842.4" gradientUnits="userSpaceOnUse"><stop stop-color="#383A47"/><stop offset="1" stop-color="#696C83"/></linearGradient><linearGradient id="paint35_linear" x1="36249.1" x2="35942" y1="73536.5" y2="73839.7" gradientUnits="userSpaceOnUse"><stop stop-color="#383A47"/><stop offset="1" stop-color="#696C83"/></linearGradient><linearGradient id="paint37_linear" x1="36254.7" x2="35947.6" y1="73528.5" y2="73831.6" gradientUnits="userSpaceOnUse"><stop stop-color="#383A47"/><stop offset="1" stop-color="#696C83"/></linearGradient><linearGradient id="paint39_linear" x1="39504.8" x2="39170.5" y1="80079.6" y2="80410.5" gradientUnits="userSpaceOnUse"><stop stop-color="#383A47"/><stop offset="1" stop-color="#696C83"/></linearGradient><linearGradient id="paint41_linear" x1="39544.2" x2="39209.9" y1="80066.1" y2="80397.3" gradientUnits="userSpaceOnUse"><stop stop-color="#383A47"/><stop offset="1" stop-color="#696C83"/></linearGradient><linearGradient id="paint43_linear" x1="39517.7" x2="39183.4" y1="80061.6" y2="80392.5" gradientUnits="userSpaceOnUse"><stop stop-color="#383A47"/><stop offset="1" stop-color="#696C83"/></linearGradient><linearGradient id="paint45_linear" x1="39517.7" x2="39183.4" y1="80056.2" y2="80387.1" gradientUnits="userSpaceOnUse"><stop stop-color="#383A47"/><stop offset="1" stop-color="#696C83"/></linearGradient><linearGradient id="paint47_linear" x1="812.4" x2="899.8" y1="163.7" y2="138.1" gradientUnits="userSpaceOnUse"><stop stop-color="#3B404F"/><stop offset="1" stop-color="#272935"/></linearGradient><linearGradient id="paint48_linear" x1="692.5" x2="807.1" y1="167.8" y2="137.9" gradientUnits="userSpaceOnUse"><stop stop-color="#3B404F"/><stop offset="1" stop-color="#343746"/></linearGradient><linearGradient id="paint49_linear" x1="727.8" x2="823.7" y1="95" y2="54.9" gradientUnits="userSpaceOnUse"><stop stop-color="#3B404F"/><stop offset="1" stop-color="#272935"/></linearGradient><linearGradient id="paint50_linear" x1="782.3" x2="829.3" y1="90.6" y2="79.5" gradientUnits="userSpaceOnUse"><stop stop-color="#3B404F"/><stop offset="1" stop-color="#272935"/></linearGradient><linearGradient id="paint52_linear" x1="203736" x2="330295" y1="54980.7" y2="54980.7" gradientUnits="userSpaceOnUse"><stop stop-color="#FCC95E"/><stop offset="1" stop-color="#EBBB57"/></linearGradient><linearGradient id="paint53_linear" x1="896.2" x2="909" y1="147.4" y2="164.4" gradientUnits="userSpaceOnUse"><stop stop-color="#2AC1FF"/><stop offset="1" stop-color="#9BFFEB"/></linearGradient><linearGradient id="paint54_linear" x1="998.3" x2="948.6" y1="284" y2="280.2" gradientUnits="userSpaceOnUse"><stop stop-color="#0C0E1C"/><stop offset="1" stop-color="#05060D" stop-opacity="0"/></linearGradient><linearGradient id="paint55_linear" x1="943.6" x2="957.9" y1="118" y2="121.9" gradientUnits="userSpaceOnUse"><stop stop-color="#2FEDD3"/><stop offset="1" stop-color="#36D0BB"/></linearGradient><linearGradient id="paint56_linear" x1="892.6" x2="658.7" y1="520.1" y2="512.8" gradientUnits="userSpaceOnUse"><stop stop-color="#0C0E1C"/><stop offset="1" stop-color="#05060D" stop-opacity="0"/></linearGradient><linearGradient id="paint57_linear" x1="872" x2="847.7" y1="499.1" y2="456.9" gradientUnits="userSpaceOnUse"><stop stop-color="#45B5CB"/><stop offset="1" stop-color="#88EDF6"/></linearGradient><linearGradient id="paint58_linear" x1="835.8" x2="860.2" y1="498.8" y2="456.5" gradientUnits="userSpaceOnUse"><stop stop-color="#45B5CB"/><stop offset="1" stop-color="#88EDF6"/></linearGradient><linearGradient id="paint59_linear" x1="854.2" x2="884.5" y1="472.5" y2="472.5" gradientUnits="userSpaceOnUse"><stop/><stop offset="1" stop-color="#96FFEE"/></linearGradient><linearGradient id="paint60_linear" x1="873.4" x2="886" y1="492.2" y2="492.2" gradientUnits="userSpaceOnUse"><stop/><stop offset="1" stop-color="#96FFEE"/></linearGradient><linearGradient id="paint61_linear" x1="872.1" x2="873.6" y1="469.9" y2="470.3" gradientUnits="userSpaceOnUse"><stop stop-color="#fff"/><stop offset="1" stop-color="#0C1164"/></linearGradient><linearGradient id="paint62_linear" x1="860.1" x2="861.8" y1="466.4" y2="466.9" gradientUnits="userSpaceOnUse"><stop stop-color="#fff"/><stop offset="1" stop-color="#0C1164"/></linearGradient><linearGradient id="paint63_linear" x1="821.4" x2="851.5" y1="471" y2="471" gradientUnits="userSpaceOnUse"><stop stop-color="#fff"/><stop offset="1" stop-color="#0A1980"/></linearGradient><linearGradient id="paint64_linear" x1="833.6" x2="874.9" y1="437.9" y2="437.9" gradientUnits="userSpaceOnUse"><stop/><stop offset="1" stop-color="#96FFEE"/></linearGradient><linearGradient id="paint65_linear" x1="822.1" x2="884.2" y1="419.5" y2="419.5" gradientUnits="userSpaceOnUse"><stop/><stop offset="1" stop-color="#96FFEE"/></linearGradient><linearGradient id="paint66_linear" x1="832.9" x2="814.3" y1="524" y2="491.8" gradientUnits="userSpaceOnUse"><stop stop-color="#45B5CB"/><stop offset="1" stop-color="#88EDF6"/></linearGradient><linearGradient id="paint67_linear" x1="796" x2="814.6" y1="523.7" y2="491.3" gradientUnits="userSpaceOnUse"><stop stop-color="#45B5CB"/><stop offset="1" stop-color="#88EDF6"/></linearGradient><linearGradient id="paint68_linear" x1="814.8" x2="845.1" y1="504.2" y2="504.2" gradientUnits="userSpaceOnUse"><stop/><stop offset="1" stop-color="#96FFEE"/></linearGradient><linearGradient id="paint69_linear" x1="834" x2="846.6" y1="514.8" y2="514.8" gradientUnits="userSpaceOnUse"><stop/><stop offset="1" stop-color="#96FFEE"/></linearGradient><linearGradient id="paint70_linear" x1="832.5" x2="834.3" y1="501.5" y2="502" gradientUnits="userSpaceOnUse"><stop stop-color="#fff"/><stop offset="1" stop-color="#0C1164"/></linearGradient><linearGradient id="paint71_linear" x1="820.4" x2="821.9" y1="498.8" y2="499.3" gradientUnits="userSpaceOnUse"><stop stop-color="#fff"/><stop offset="1" stop-color="#0C1164"/></linearGradient><linearGradient id="paint72_linear" x1="781.9" x2="812.1" y1="502.7" y2="502.7" gradientUnits="userSpaceOnUse"><stop stop-color="#fff"/><stop offset="1" stop-color="#0A1980"/></linearGradient><linearGradient id="paint73_linear" x1="794.1" x2="835.5" y1="478.7" y2="478.7" gradientUnits="userSpaceOnUse"><stop/><stop offset="1" stop-color="#96FFEE"/></linearGradient><linearGradient id="paint74_linear" x1="782.7" x2="844.7" y1="460.3" y2="460.3" gradientUnits="userSpaceOnUse"><stop/><stop offset="1" stop-color="#96FFEE"/></linearGradient><linearGradient id="paint75_linear" x1="764.5" x2="712.3" y1="504.8" y2="597.1" gradientUnits="userSpaceOnUse"><stop stop-color="#51C9FC"/><stop offset=".4" stop-color="#33E9D8"/><stop offset="1" stop-color="#2FEDD3"/></linearGradient><linearGradient id="paint76_linear" x1="738" x2="771.3" y1="384.8" y2="430.1" gradientUnits="userSpaceOnUse"><stop stop-color="#2AC1FF"/><stop offset="1" stop-color="#9BFFEB"/></linearGradient><linearGradient id="paint77_linear" x1="773.1" x2="819.5" y1="428.8" y2="425.6" gradientUnits="userSpaceOnUse"><stop stop-color="#5478D7"/><stop offset=".7" stop-color="#5B8DD7"/><stop offset="1" stop-color="#5F9AD7"/></linearGradient><linearGradient id="paint78_linear" x1="794.4" x2="781.3" y1="548.8" y2="526.2" gradientUnits="userSpaceOnUse"><stop stop-color="#45B5CB"/><stop offset="1" stop-color="#88EDF6"/></linearGradient><linearGradient id="paint79_linear" x1="756.6" x2="769.7" y1="548.5" y2="525.8" gradientUnits="userSpaceOnUse"><stop stop-color="#45B5CB"/><stop offset="1" stop-color="#88EDF6"/></linearGradient><linearGradient id="paint80_linear" x1="795" x2="807.6" y1="537.5" y2="537.5" gradientUnits="userSpaceOnUse"><stop/><stop offset="1" stop-color="#96FFEE"/></linearGradient><linearGradient id="paint81_linear" x1="792.4" x2="796.7" y1="532.3" y2="533.5" gradientUnits="userSpaceOnUse"><stop stop-color="#fff"/><stop offset="1" stop-color="#0C1164"/></linearGradient><linearGradient id="paint82_linear" x1="780.6" x2="783.2" y1="531" y2="531.7" gradientUnits="userSpaceOnUse"><stop stop-color="#fff"/><stop offset="1" stop-color="#0C1164"/></linearGradient><linearGradient id="paint83_linear" x1="743" x2="773.1" y1="534.2" y2="534.2" gradientUnits="userSpaceOnUse"><stop stop-color="#fff"/><stop offset="1" stop-color="#0A1980"/></linearGradient><linearGradient id="paint84_linear" x1="755.1" x2="796.5" y1="519" y2="519" gradientUnits="userSpaceOnUse"><stop/><stop offset="1" stop-color="#96FFEE"/></linearGradient><linearGradient id="paint85_linear" x1="743.7" x2="805.7" y1="500.6" y2="500.6" gradientUnits="userSpaceOnUse"><stop/><stop offset="1" stop-color="#96FFEE"/></linearGradient><radialGradient id="paint23_radial" cx="0" cy="0" r="1" gradientTransform="translate(811 200) scale(16.8711)" gradientUnits="userSpaceOnUse"><stop stop-color="#fff"/><stop offset="1"/></radialGradient><radialGradient id="paint27_radial" cx="0" cy="0" r="1" gradientTransform="matrix(14.4753 0 0 14.4918 700 132)" gradientUnits="userSpaceOnUse"><stop stop-color="#fff"/><stop offset="1"/></radialGradient><radialGradient id="paint34_radial" cx="0" cy="0" r="1" gradientTransform="matrix(8.29403 0 0 7.50827 856 152)" gradientUnits="userSpaceOnUse"><stop stop-color="#fff"/><stop offset="1"/></radialGradient><radialGradient id="paint36_radial" cx="0" cy="0" r="1" gradientTransform="matrix(8.29403 0 0 7.5213 820 134)" gradientUnits="userSpaceOnUse"><stop stop-color="#fff"/><stop offset="1"/></radialGradient><radialGradient id="paint38_radial" cx="0" cy="0" r="1" gradientTransform="matrix(8.29403 0 0 7.50827 856 79)" gradientUnits="userSpaceOnUse"><stop stop-color="#fff"/><stop offset="1"/></radialGradient><radialGradient id="paint40_radial" cx="0" cy="0" r="1" gradientTransform="matrix(8.29403 0 0 7.50826 816 354)" gradientUnits="userSpaceOnUse"><stop stop-color="#fff"/><stop offset="1"/></radialGradient><radialGradient id="paint42_radial" cx="0" cy="0" r="1" gradientTransform="matrix(8.29406 0 0 7.5213 865 292)" gradientUnits="userSpaceOnUse"><stop stop-color="#fff"/><stop offset="1"/></radialGradient><radialGradient id="paint44_radial" cx="0" cy="0" r="1" gradientTransform="matrix(8.29406 0 0 7.50826 911 232)" gradientUnits="userSpaceOnUse"><stop stop-color="#fff"/><stop offset="1"/></radialGradient><radialGradient id="paint46_radial" cx="0" cy="0" r="1" gradientTransform="matrix(8.29406 0 0 7.50827 911 195)" gradientUnits="userSpaceOnUse"><stop stop-color="#fff"/><stop offset="1"/></radialGradient><radialGradient id="paint51_radial" cx="0" cy="0" r="1" gradientTransform="rotate(-11 788 -3377) scale(14.5946 8.05459)" gradientUnits="userSpaceOnUse"><stop offset=".1" stop-color="#F03224"/><stop offset=".2" stop-color="#E72B1F"/><stop offset=".3" stop-color="#CF1B11"/><stop offset=".4" stop-color="#C11009"/><stop offset=".5" stop-color="#BC0D06"/><stop offset=".8" stop-color="#A60906"/></radialGradient><clipPath id="clip0"><path fill="#fff" d="M0 0h368v307H0z" transform="translate(284 63)"/></clipPath><filter id="filter0_f" width="369.6" height="266.7" x="322" y="165" color-interpolation-filters="sRGB" filterUnits="userSpaceOnUse"><feFlood flood-opacity="0" result="BackgroundImageFix"/><feBlend in="SourceGraphic" in2="BackgroundImageFix" result="shape"/><feGaussianBlur result="effect1_foregroundBlur" stdDeviation="25"/></filter></defs></svg>
